<svg id="Layer_1" data-name="Layer 1" xmlns="http://www.w3.org/2000/svg" viewBox="0 0 365.38 62.65"><defs><style>.cls-1{fill:#1c75bc;}.cls-2{fill:#fff;}.cls-3{fill:#231f20;}</style></defs><rect class="cls-1" width="142.52" height="62.65"/><path class="cls-2" d="M25.81,118.51H95q16.07,0,22.8,3.18t6.74,8.19v.93a6.81,6.81,0,0,1-1.36,4.12,9.78,9.78,0,0,1-3.64,2.94,34,34,0,0,1-4.13,1.7,29.37,29.37,0,0,1-3.69.94,39.23,39.23,0,0,1,5.1,1.13,43.62,43.62,0,0,1,5.54,2.11,12.4,12.4,0,0,1,4.89,3.78c1.23,1.6,2.46,6.35,2.46,8.4l-.61-2q0,14.31-33.45,14.31H25.81Zm25.3,18.59H90.64q8.81,0,8.8-4V133q0-3.94-8.8-3.94H51.11Zm0,10.56v9.76h41.7q5.66,0,7.82-1.47a4.16,4.16,0,0,0,2.18-3.41v-.27q0-4.61-10-4.61Z" transform="translate(-10.38 -112.44)"/><path class="cls-3" d="M163.39,121.73H184.2c3.22,0,5.51.91,6.86,2.75a11.65,11.65,0,0,1,2,7.09v.81a14.47,14.47,0,0,1-.4,3.56,7.76,7.76,0,0,1-1.1,2.55,10.49,10.49,0,0,1-1.24,1.48,4.88,4.88,0,0,1-1.11.81,6.47,6.47,0,0,1,1.53,1,12,12,0,0,1,1.67,1.83,9.22,9.22,0,0,1,1.47,3.27,18.48,18.48,0,0,1,.56,4.75v.81q0,12.39-10.07,12.39h-21Zm7.61,16.1h11.89q2.66,0,2.65-3.48v-.12q0-3.4-2.65-3.41H171Zm0,9.15v8.45h12.55a2.41,2.41,0,0,0,2.35-1.27,6.48,6.48,0,0,0,.65-3V151q0-4-3-4Z" transform="translate(-10.38 -112.44)"/><path class="cls-3" d="M205,121.88v32.3h16.85v10.69H197.37v-43Z" transform="translate(-10.38 -112.44)"/><path class="cls-3" d="M241.28,121.13a19.77,19.77,0,0,1,5.74.78,14.51,14.51,0,0,1,4.31,2,13.3,13.3,0,0,1,3,3.12,18.19,18.19,0,0,1,2,3.7,24.73,24.73,0,0,1,1.19,4.05,30.29,30.29,0,0,1,.58,3.92c.09,1.16.13,2.37.13,3.64v1.74c0,1.23,0,2.42-.13,3.58a31.59,31.59,0,0,1-.58,4,26.75,26.75,0,0,1-1.18,4.1,16.86,16.86,0,0,1-2,3.75,13.8,13.8,0,0,1-3.05,3.18,14,14,0,0,1-4.32,2.11,19.16,19.16,0,0,1-5.75.81h-1a19.39,19.39,0,0,1-5.77-.81,14,14,0,0,1-4.33-2.11,13.8,13.8,0,0,1-3.05-3.18,17.84,17.84,0,0,1-2-3.75,24.67,24.67,0,0,1-1.18-4.1,35.55,35.55,0,0,1-.57-4c-.08-1.16-.13-2.35-.13-3.58v-1.74c0-1.27.05-2.47.13-3.61a35.78,35.78,0,0,1,.57-3.93,23.76,23.76,0,0,1,1.18-4.07,18.12,18.12,0,0,1,2-3.7,13.5,13.5,0,0,1,3-3.12,14.41,14.41,0,0,1,4.35-2,20.08,20.08,0,0,1,5.77-.78Zm9.09,21.67a18.64,18.64,0,0,0-.23-3.06,12.7,12.7,0,0,0-.88-3,8.58,8.58,0,0,0-1.69-2.66,8,8,0,0,0-2.84-1.82,10.58,10.58,0,0,0-3.34-.69c-.27,0-.84,0-1,0q-9.24.33-9.25,11.26v.69a18.29,18.29,0,0,0,.41,3.93,14.7,14.7,0,0,0,1.39,3.7,7.06,7.06,0,0,0,3,2.94,10.2,10.2,0,0,0,4.54,1.1h.77a10,10,0,0,0,4.24-1.06,7.21,7.21,0,0,0,3.05-2.88,14.11,14.11,0,0,0,1.42-3.67,18.44,18.44,0,0,0,.4-3.93Z" transform="translate(-10.38 -112.44)"/><path class="cls-3" d="M276.33,165.56a15,15,0,0,1-6.7-1.44,13.24,13.24,0,0,1-4.67-3.66,19,19,0,0,1-2.84-5.19,28.71,28.71,0,0,1-1.52-5.71,37.91,37.91,0,0,1-.4-5.56v-1.61a41.75,41.75,0,0,1,.34-5.45,26,26,0,0,1,1.43-5.59,18.26,18.26,0,0,1,2.81-5.13,13.17,13.17,0,0,1,4.77-3.6,16.24,16.24,0,0,1,7-1.45H278a18.69,18.69,0,0,1,6.83,1.16,13.22,13.22,0,0,1,4.64,2.85,14,14,0,0,1,2.74,4,17.62,17.62,0,0,1,1.43,4.26,23.4,23.4,0,0,1,.39,4v.06H286q-1.2-6.12-8.62-6.11-9.19,0-9.2,11.58v.64a14.41,14.41,0,0,0,2.26,8.13,7.71,7.71,0,0,0,6.88,3.4,12.84,12.84,0,0,0,3.71-.52,9,9,0,0,0,2.69-1.27,8.65,8.65,0,0,0,1.71-1.64,7,7,0,0,0,1-1.59,3.21,3.21,0,0,0,.27-1.09v-.12h-9.49v-8.13h17v24h-5.46s0-3.84-.07-6.69Q285,165.56,277,165.56Z" transform="translate(-10.38 -112.44)"/><path class="cls-3" d="M303.05,166.16h-6.59v-8.48h6.59Z" transform="translate(-10.38 -112.44)"/><path class="cls-3" d="M321.06,165.57a16.69,16.69,0,0,1-5.33-.82,13.28,13.28,0,0,1-4.06-2.11,14.2,14.2,0,0,1-2.93-3.18,18.25,18.25,0,0,1-2-3.8,27.9,27.9,0,0,1-1.19-4.11,29.32,29.32,0,0,1-.62-4c-.1-1.19-.15-2.39-.15-3.59v-1.68a46.4,46.4,0,0,1,.29-5.27,28.19,28.19,0,0,1,1.33-5.56,18.27,18.27,0,0,1,2.69-5.27,13,13,0,0,1,4.75-3.7,16.18,16.18,0,0,1,7.21-1.51h1.34a18,18,0,0,1,7.09,1.31,13.12,13.12,0,0,1,4.75,3.18A15.84,15.84,0,0,1,337,129.8a19.05,19.05,0,0,1,1.38,4.41,24.36,24.36,0,0,1,.31,3.73v.64H330.6a11.49,11.49,0,0,0-.25-1.25,11.74,11.74,0,0,0-.75-1.76,6.93,6.93,0,0,0-1.47-2,8.28,8.28,0,0,0-2.55-1.48,10.53,10.53,0,0,0-3.87-.66,9.7,9.7,0,0,0-4.46.95,6.49,6.49,0,0,0-2.77,2.64,12.7,12.7,0,0,0-1.33,3.53,19.74,19.74,0,0,0-.39,4v.7a18.28,18.28,0,0,0,.44,4,16,16,0,0,0,1.39,3.77A7.17,7.17,0,0,0,317.4,154a8.38,8.38,0,0,0,4.38,1.1q7.47,0,8.82-7.47a.67.67,0,0,0,0-.17h8.07v.64a23.41,23.41,0,0,1-.35,3.93,19.8,19.8,0,0,1-1.42,4.55,16.21,16.21,0,0,1-2.77,4.43,13.3,13.3,0,0,1-4.76,3.24,17.31,17.31,0,0,1-7,1.34Z" transform="translate(-10.38 -112.44)"/><path class="cls-3" d="M358.72,121.13a19.7,19.7,0,0,1,5.73.78,14.45,14.45,0,0,1,4.32,2,13.5,13.5,0,0,1,3.05,3.12,17.65,17.65,0,0,1,2,3.7,23.79,23.79,0,0,1,1.19,4.05,30.47,30.47,0,0,1,.59,3.92c.09,1.16.13,2.37.13,3.64v1.74c0,1.23,0,2.42-.13,3.58a31.78,31.78,0,0,1-.59,4,25.68,25.68,0,0,1-1.17,4.1,17.34,17.34,0,0,1-2,3.75,13.76,13.76,0,0,1-3,3.18,14.15,14.15,0,0,1-4.32,2.11,19.25,19.25,0,0,1-5.75.81h-1a19.39,19.39,0,0,1-5.77-.81,14,14,0,0,1-4.34-2.11,13.76,13.76,0,0,1-3-3.18,17.9,17.9,0,0,1-2.06-3.75,23.75,23.75,0,0,1-1.17-4.1,35.55,35.55,0,0,1-.57-4c-.09-1.16-.13-2.35-.13-3.58v-1.74c0-1.27,0-2.47.13-3.61a35.78,35.78,0,0,1,.57-3.93,22.9,22.9,0,0,1,1.17-4.07,18.19,18.19,0,0,1,2-3.7,13.3,13.3,0,0,1,3.05-3.12,14.41,14.41,0,0,1,4.35-2,20.08,20.08,0,0,1,5.77-.78Zm9.09,21.67a19.81,19.81,0,0,0-.23-3.06,13.19,13.19,0,0,0-.88-3,8.77,8.77,0,0,0-1.69-2.66,8.09,8.09,0,0,0-2.84-1.82,10.64,10.64,0,0,0-3.34-.69c-.27,0-.84,0-1,0q-9.24.33-9.24,11.26v.69a18.29,18.29,0,0,0,.41,3.93,14.66,14.66,0,0,0,1.38,3.7,7.06,7.06,0,0,0,3,2.94,10.24,10.24,0,0,0,4.54,1.1h.78a10,10,0,0,0,4.24-1.06,7.19,7.19,0,0,0,3-2.88,13.44,13.44,0,0,0,1.42-3.67,18.43,18.43,0,0,0,.41-3.93Z" transform="translate(-10.38 -112.44)"/></svg>